<svg width="37" height="50" viewBox="0 0 37 50" fill="none" xmlns="http://www.w3.org/2000/svg">
<path d="M33.8064 15.5565C33.1861 10.2228 28.5481 8.4891 22.6817 8.08748L22.5641 0.645595L18.0551 0.721447L18.1846 7.96605C16.9949 7.99364 15.7751 8.02932 14.5634 8.09519L14.4258 0.820402L9.91682 0.896253L10.0565 8.29987C9.06417 8.3393 8.102 8.37065 7.17001 8.39391L7.16192 8.36372L0.917766 8.48392L1.01413 13.311C1.01413 13.311 4.3475 13.1942 4.29522 13.2406C6.12901 13.2022 6.73821 14.2683 6.92048 15.1901L7.05543 23.6626C7.18426 23.6604 7.34327 23.6502 7.54865 23.6922C7.38963 23.7024 7.23062 23.7127 7.06352 23.6928L7.2629 35.545C7.1891 36.1148 6.85606 37.0452 5.59795 37.0588C5.64432 37.111 2.31686 37.1291 2.31686 37.1291L1.50609 42.5551L7.40203 42.4635C8.50111 42.4602 9.56193 42.4347 10.6308 42.4395L10.7646 49.9418L15.2736 49.8659L15.156 42.424C16.3839 42.4185 17.6119 42.413 18.7713 42.3935L18.911 49.7971L23.42 49.7213L23.2862 42.219C30.8947 41.6362 36.1824 39.637 36.6912 32.4802C37.1251 26.7346 34.3764 24.2036 30.0392 23.2305C32.6766 21.8444 34.266 19.445 33.8064 15.5565ZM27.7566 31.7361C27.866 37.3361 18.2313 36.8766 15.1696 36.9205L14.9946 26.9705C18.0563 26.9266 27.6731 25.8703 27.7566 31.7361ZM25.4209 17.7063C25.4995 22.8293 17.4791 22.3578 14.9328 22.393L14.7811 13.375C17.3274 13.3397 25.3239 12.3941 25.4209 17.7063Z" fill="white"/>
</svg>
